<svg width="40" height="40" viewBox="0 0 40 40" fill="none" xmlns="http://www.w3.org/2000/svg">
<path d="M0 20C0 8.95431 8.95431 0 20 0C31.0457 0 40 8.95431 40 20C40 31.0457 31.0457 40 20 40C8.95431 40 0 31.0457 0 20Z" fill="#4E2FA9"/>
<path d="M11.812 14.3079L12.9885 29.9596C13.0299 30.5124 13.2774 31.0294 13.6818 31.4075C14.0862 31.7856 14.6179 31.9972 15.1708 32.0001H25.0414C25.6027 31.9996 26.1428 31.7847 26.5515 31.399C26.9603 31.0133 27.207 30.4859 27.2414 29.9242L28.1885 14.3079H11.812ZM18.2355 27.3824C18.2355 27.5122 18.1841 27.6367 18.0925 27.7285C18.001 27.8203 17.8768 27.8719 17.7473 27.8719H16.9591C16.8296 27.8719 16.7054 27.8203 16.6138 27.7285C16.5223 27.6367 16.4708 27.5122 16.4708 27.3824V17.7461C16.4708 17.6162 16.5223 17.4917 16.6138 17.3999C16.7054 17.3081 16.8296 17.2566 16.9591 17.2566H17.7473C17.8768 17.2566 18.001 17.3081 18.0925 17.3999C18.1841 17.4917 18.2355 17.6162 18.2355 17.7461V27.3824ZM23.5297 27.3824C23.5297 27.5122 23.4782 27.6367 23.3867 27.7285C23.2951 27.8203 23.1709 27.8719 23.0414 27.8719H22.2532C22.1237 27.8719 21.9995 27.8203 21.908 27.7285C21.8164 27.6367 21.765 27.5122 21.765 27.3824V17.7461C21.765 17.6162 21.8164 17.4917 21.908 17.3999C21.9995 17.3081 22.1237 17.2566 22.2532 17.2566H23.0414C23.1709 17.2566 23.2951 17.3081 23.3867 17.3999C23.4782 17.4917 23.5297 17.6162 23.5297 17.7461V27.3824Z" fill="white"/>
<path d="M23.5294 9.88461C23.5294 9.65 23.4365 9.42499 23.271 9.2591C23.1055 9.0932 22.8811 9 22.6471 9H17.3529C17.1189 9 16.8945 9.0932 16.729 9.2591C16.5636 9.42499 16.4706 9.65 16.4706 9.88461C16.4706 10.1192 16.3776 10.3442 16.2122 10.5101C16.0467 10.676 15.8222 10.7692 15.5882 10.7692H10.8824C10.6483 10.7692 10.4239 10.8624 10.2584 11.0283C10.093 11.1942 10 11.4192 10 11.6538V12.2436C10 12.4782 10.093 12.7032 10.2584 12.8691C10.4239 13.035 10.6483 13.1282 10.8824 13.1282H29.1176C29.3517 13.1282 29.5761 13.035 29.7416 12.8691C29.907 12.7032 30 12.4782 30 12.2436V11.6538C30 11.4192 29.907 11.1942 29.7416 11.0283C29.5761 10.8624 29.3517 10.7692 29.1176 10.7692H24.4118C24.1778 10.7692 23.9533 10.676 23.7878 10.5101C23.6224 10.3442 23.5294 10.1192 23.5294 9.88461Z" fill="white"/>
</svg>
