<svg width="40" height="40" viewBox="0 0 40 40" fill="none" xmlns="http://www.w3.org/2000/svg">
<path d="M0 20C0 8.95431 8.95431 0 20 0C31.0457 0 40 8.95431 40 20C40 31.0457 31.0457 40 20 40C8.95431 40 0 31.0457 0 20Z" fill="#FF6F37"/>
<path d="M11.812 13.8078L12.9885 29.4595C13.0299 30.0123 13.2774 30.5293 13.6818 30.9074C14.0862 31.2855 14.6179 31.4971 15.1708 31.5H25.0414C25.6027 31.4996 26.1428 31.2846 26.5515 30.8989C26.9603 30.5132 27.207 29.9858 27.2414 29.4241L28.1885 13.8078H11.812ZM18.2355 26.8823C18.2355 27.0121 18.1841 27.1367 18.0925 27.2284C18.001 27.3202 17.8768 27.3718 17.7473 27.3718H16.9591C16.8296 27.3718 16.7054 27.3202 16.6138 27.2284C16.5223 27.1367 16.4708 27.0121 16.4708 26.8823V17.246C16.4708 17.1161 16.5223 16.9916 16.6138 16.8998C16.7054 16.8081 16.8296 16.7565 16.9591 16.7565H17.7473C17.8768 16.7565 18.001 16.8081 18.0925 16.8998C18.1841 16.9916 18.2355 17.1161 18.2355 17.246V26.8823ZM23.5297 26.8823C23.5297 27.0121 23.4782 27.1367 23.3867 27.2284C23.2951 27.3202 23.1709 27.3718 23.0414 27.3718H22.2532C22.1237 27.3718 21.9995 27.3202 21.908 27.2284C21.8164 27.1367 21.765 27.0121 21.765 26.8823V17.246C21.765 17.1161 21.8164 16.9916 21.908 16.8998C21.9995 16.8081 22.1237 16.7565 22.2532 16.7565H23.0414C23.1709 16.7565 23.2951 16.8081 23.3867 16.8998C23.4782 16.9916 23.5297 17.1161 23.5297 17.246V26.8823Z" fill="white"/>
<path d="M23.5294 9.38461C23.5294 9.15 23.4365 8.92499 23.271 8.7591C23.1055 8.5932 22.8811 8.5 22.6471 8.5H17.3529C17.1189 8.5 16.8945 8.5932 16.729 8.7591C16.5636 8.92499 16.4706 9.15 16.4706 9.38461C16.4706 9.61922 16.3776 9.84423 16.2122 10.0101C16.0467 10.176 15.8222 10.2692 15.5882 10.2692H10.8824C10.6483 10.2692 10.4239 10.3624 10.2584 10.5283C10.093 10.6942 10 10.9192 10 11.1538V11.7436C10 11.9782 10.093 12.2032 10.2584 12.3691C10.4239 12.535 10.6483 12.6282 10.8824 12.6282H29.1176C29.3517 12.6282 29.5761 12.535 29.7416 12.3691C29.907 12.2032 30 11.9782 30 11.7436V11.1538C30 10.9192 29.907 10.6942 29.7416 10.5283C29.5761 10.3624 29.3517 10.2692 29.1176 10.2692H24.4118C24.1778 10.2692 23.9533 10.176 23.7878 10.0101C23.6224 9.84423 23.5294 9.61922 23.5294 9.38461Z" fill="white"/>
</svg>
