<svg width="40" height="40" viewBox="0 0 40 40" fill="none" xmlns="http://www.w3.org/2000/svg">
<path d="M0 20C0 8.95431 8.95431 0 20 0C31.0457 0 40 8.95431 40 20C40 31.0457 31.0457 40 20 40C8.95431 40 0 31.0457 0 20Z" fill="#FF6F37"/>
<path d="M29.2527 14.7678L29.4407 14.5797C30.1867 13.8337 30.1867 12.6243 29.4407 11.8784L28.1218 10.5595C27.3759 9.81351 26.1665 9.81351 25.4205 10.5595L25.2324 10.7475L29.2527 14.7678Z" fill="white"/>
<path d="M24.2893 11.6902L16.6593 19.3202L20.6795 23.3404L28.3095 15.7104L24.2893 11.6902Z" fill="white"/>
<path d="M15.9426 20.489L19.5109 24.0573L16.1158 24.6564C15.9016 24.6942 15.6824 24.6251 15.5286 24.4713C15.3747 24.3175 15.3056 24.0983 15.3435 23.884L15.9426 20.489Z" fill="white"/>
<path d="M27.3333 21.3334C27.3333 20.9652 27.0349 20.6667 26.6667 20.6667C26.2985 20.6667 26 20.9652 26 21.3334V28.0001C26 28.3683 25.7015 28.6667 25.3333 28.6667H12C11.6318 28.6667 11.3333 28.3683 11.3333 28.0001V14.6667C11.3333 14.2985 11.6318 14.0001 12 14.0001H18.6667C19.0349 14.0001 19.3333 13.7016 19.3333 13.3334C19.3333 12.9652 19.0349 12.6667 18.6667 12.6667H12C10.8954 12.6667 10 13.5622 10 14.6667V28.0001C10 29.1046 10.8954 30.0001 12 30.0001H25.3333C26.4379 30.0001 27.3333 29.1046 27.3333 28.0001V21.3334Z" fill="white"/>
</svg>
