<svg width="20" height="20" viewBox="0 0 20 20" fill="none" xmlns="http://www.w3.org/2000/svg">
<path d="M19.2527 4.76777L19.4407 4.5797C20.1867 3.83373 20.1867 2.62431 19.4407 1.87836L18.1218 0.559465C17.3759 -0.186488 16.1665 -0.186488 15.4205 0.559465L15.2324 0.747542L19.2527 4.76777Z" fill="white"/>
<path d="M14.2892 1.69031L6.65918 9.32029L10.6794 13.3405L18.3094 5.71056L14.2892 1.69031Z" fill="white"/>
<path d="M5.94276 10.489L9.51106 14.0573L6.11603 14.6564C5.9018 14.6942 5.68259 14.6251 5.52876 14.4713C5.37493 14.3175 5.30583 14.0983 5.34366 13.884L5.94276 10.489Z" fill="white"/>
<path d="M17.3333 11.3333C17.3333 10.9651 17.0349 10.6667 16.6667 10.6667C16.2985 10.6667 16 10.9651 16 11.3333V18C16 18.3682 15.7015 18.6667 15.3333 18.6667H2C1.63181 18.6667 1.33333 18.3682 1.33333 18V4.66666C1.33333 4.29846 1.63181 3.99999 2 3.99999H8.66667C9.03487 3.99999 9.33333 3.70152 9.33333 3.33332C9.33333 2.96512 9.03487 2.66666 8.66667 2.66666H2C0.89543 2.66666 0 3.56209 0 4.66666V18C0 19.1046 0.89543 20 2 20H15.3333C16.4379 20 17.3333 19.1046 17.3333 18V11.3333Z" fill="white"/>
</svg>
