<svg width="20" height="20" viewBox="0 0 20 20" fill="none" xmlns="http://www.w3.org/2000/svg">
<path d="M19.3622 12.7105C18.5908 12.2982 18.1717 11.5175 18.2574 10.7018C18.286 10.4737 18.2955 10.2368 18.2955 10C18.2955 9.76316 18.286 9.52632 18.2574 9.29825C18.1717 8.48246 18.5908 7.70175 19.3622 7.28947C19.9718 6.96491 20.1813 6.25439 19.8289 5.69298L18.9622 4.30702C18.6098 3.74561 17.8384 3.55263 17.2288 3.87719C16.4859 4.27193 15.543 4.25439 14.8478 3.78947C14.3906 3.49123 13.8954 3.22807 13.3715 3.01754C12.6096 2.70175 12.1334 1.98246 12.1334 1.21053V1.17544C12.1334 0.526316 11.562 0 10.8667 0H9.13331C8.42852 0 7.8666 0.526316 7.8666 1.16667C7.8666 1.96491 7.38087 2.70175 6.59037 3.02632C6.08559 3.23684 5.59986 3.49123 5.15222 3.78947C4.44744 4.25439 3.51407 4.27193 2.77119 3.87719C2.16165 3.55263 1.3902 3.74561 1.0378 4.30702L0.171108 5.69298C-0.181285 6.25439 0.0282462 6.96491 0.63779 7.28947C1.40924 7.70175 1.82831 8.48246 1.74259 9.29825C1.71402 9.52632 1.70449 9.76316 1.70449 10C1.70449 10.2368 1.71402 10.4737 1.74259 10.7018C1.82831 11.5175 1.40924 12.2982 0.63779 12.7105C0.0282462 13.0351 -0.181285 13.7456 0.171108 14.307L1.0378 15.693C1.3902 16.2544 2.16165 16.4474 2.77119 16.1228C3.51407 15.7281 4.45696 15.7456 5.15222 16.2105C5.60938 16.5088 6.10463 16.7719 6.62846 16.9825C7.39039 17.2982 7.8666 18.0175 7.8666 18.7895V18.8246C7.8666 19.4737 8.43804 20 9.13331 20H10.8667C11.5715 20 12.1334 19.4737 12.1334 18.8333C12.1334 18.0351 12.6191 17.2982 13.4096 16.9737C13.9335 16.7544 14.4192 16.5 14.8764 16.193C15.5526 15.7456 16.4669 15.7281 17.1907 16.114L17.2193 16.1316C17.8288 16.4561 18.6098 16.2632 18.9622 15.7105L19.8289 14.3246C20.1813 13.7632 19.9718 13.0526 19.3622 12.7281V12.7105ZM10 13.3246C8.00946 13.3246 6.39036 11.8333 6.39036 10C6.39036 8.16667 8.00946 6.67544 10 6.67544C11.9905 6.67544 13.6096 8.16667 13.6096 10C13.6096 11.8333 11.9905 13.3246 10 13.3246Z" fill="white"/>
</svg>
