<?xml version="1.0" encoding="UTF-8"?>
<!DOCTYPE svg PUBLIC "-//W3C//DTD SVG 1.1//EN" "http://www.w3.org/Graphics/SVG/1.1/DTD/svg11.dtd">
<svg xmlns="http://www.w3.org/2000/svg" version="1.1" width="15px" height="15px" style="shape-rendering:geometricPrecision; text-rendering:geometricPrecision; image-rendering:optimizeQuality; fill-rule:evenodd; clip-rule:evenodd" xmlns:xlink="http://www.w3.org/1999/xlink">
<g><path style="opacity:0.725" fill="#4e2fa9" d="M 2.5,-0.5 C 5.16667,-0.5 7.83333,-0.5 10.5,-0.5C 12.1667,0.5 13.5,1.83333 14.5,3.5C 14.5,5.83333 14.5,8.16667 14.5,10.5C 13.5,12.1667 12.1667,13.5 10.5,14.5C 8.16667,14.5 5.83333,14.5 3.5,14.5C 2.20498,13.5116 0.871651,12.5116 -0.5,11.5C -0.5,8.83333 -0.5,6.16667 -0.5,3.5C 0.488369,2.20498 1.48837,0.871651 2.5,-0.5 Z M 6.5,1.5 C 6.49351,4.5176 5.49351,7.18426 3.5,9.5C 3.83333,9.83333 4.16667,10.1667 4.5,10.5C 6.0534,9.561 7.38674,8.39433 8.5,7C 7.76652,5.23411 7.43319,3.40078 7.5,1.5C 10.9002,1.73099 12.9002,3.56432 13.5,7C 12.0468,12.1392 8.71347,13.8058 3.5,12C -0.5,8.66667 -0.5,5.33333 3.5,2C 4.44802,1.51722 5.44802,1.35055 6.5,1.5 Z"/></g>
<g><path style="opacity:0.735" fill="#4e2fa9" d="M 6.5,1.5 C 6.83333,1.5 7.16667,1.5 7.5,1.5C 7.43319,3.40078 7.76652,5.23411 8.5,7C 7.38674,8.39433 6.0534,9.561 4.5,10.5C 4.16667,10.1667 3.83333,9.83333 3.5,9.5C 5.49351,7.18426 6.49351,4.5176 6.5,1.5 Z"/></g>
</svg>
